<?xml version="1.0" standalone="no"?>
<!DOCTYPE svg PUBLIC "-//W3C//DTD SVG 20010904//EN"
 "http://www.w3.org/TR/2001/REC-SVG-20010904/DTD/svg10.dtd">
<svg version="1.0" xmlns="http://www.w3.org/2000/svg"
 width="1248.000000pt" height="1248.000000pt" viewBox="0 0 1248.000000 1248.000000"
 preserveAspectRatio="xMidYMid meet">
<metadata>
Created by potrace 1.11, written by Peter Selinger 2001-2013
</metadata>
<g transform="translate(0.000000,1248.000000) scale(0.100000,-0.100000)"
fill="#000000" stroke="none">
<path d="M1620 6240 l0 -6240 4620 0 4620 0 0 6240 0 6240 -4620 0 -4620 0 0
-6240z m7240 0 l0 -4240 -2620 0 -2620 0 0 1620 0 1620 1000 0 1000 0 0 -620
0 -620 620 0 620 0 0 2240 0 2240 -1620 0 -1620 0 0 1000 0 1000 2620 0 2620
0 0 -4240z"/>
</g>
</svg>
